<svg xmlns="http://www.w3.org/2000/svg" xmlns:xlink="http://www.w3.org/1999/xlink" width="1920" zoomAndPan="magnify" viewBox="0 0 1440 809.999993" height="1080" preserveAspectRatio="xMidYMid meet" version="1.0"><defs><clipPath id="4c932b790a"><path d="M 0.316406 0.164062 L 1210.863281 0.164062 L 1210.863281 643 L 0.316406 643 Z M 0.316406 0.164062 " clip-rule="nonzero"/></clipPath><clipPath id="ff741f3419"><rect x="0" width="1212" y="0" height="644"/></clipPath></defs><g transform="matrix(1, 0, 0, 1, 114, 83)"><g clip-path="url(#ff741f3419)"><g clip-path="url(#4c932b790a)"><path fill="#318ba2" d="M 989.34375 199.65625 C 969.265625 199.65625 949.835938 202.375 931.339844 207.382812 C 890.0625 87.289062 776.171875 0.945312 642.042969 0.945312 C 514.789062 0.945312 405.710938 78.652344 359.613281 189.179688 C 343.175781 183.96875 325.679688 181.136719 307.519531 181.136719 C 212.429688 181.136719 135.355469 258.207031 135.355469 353.269531 C 135.355469 353.386719 135.363281 353.492188 135.363281 353.609375 C 59.964844 358.511719 0.316406 421.167969 0.316406 497.789062 C 0.316406 577.609375 65.035156 642.3125 144.875 642.3125 C 147.089844 642.3125 149.289062 642.246094 151.472656 642.144531 L 151.488281 642.3125 L 152.605469 642.105469 C 153.601562 642.046875 154.578125 641.953125 155.566406 641.878906 L 972.34375 641.878906 C 977.960938 642.308594 983.617188 642.585938 989.34375 642.585938 C 1111.691406 642.585938 1210.863281 543.4375 1210.863281 421.128906 C 1210.863281 298.820312 1111.691406 199.65625 989.34375 199.65625 Z M 989.34375 199.65625 " fill-opacity="1" fill-rule="nonzero"/></g></g></g></svg>